<?xml version="1.0" encoding="UTF-8"?>
<svg id="_レイヤー_1" data-name="レイヤー 1" xmlns="http://www.w3.org/2000/svg" viewBox="0 0 181.5 181.5">
  <defs>
    <style>
      .cls-1 {
        fill: #fff;
      }
    </style>
  </defs>
  <circle class="cls-1" cx="90.75" cy="90.75" r="90.75"/>
  <g>
    <path d="M129.33,68.59c-.39-2.02-1.08-4-2.06-5.87-.98-1.87-2.26-3.62-3.82-5.18-2.08-2.08-4.5-3.66-7.08-4.7-3.87-1.56-8.09-1.96-12.14-1.17-2.02.39-4,1.07-5.87,2.05-1.86.98-3.62,2.26-5.18,3.82l-10.14,10.14c-2.05,2.04-2.05,5.37,0,7.41s5.36,2.04,7.41,0l10.14-10.15c1.08-1.07,2.3-1.86,3.61-2.4,1.97-.8,4.14-1,6.21-.6,1.03.2,2.04.55,2.99,1.05.95.5,1.84,1.14,2.65,1.95,1.08,1.08,1.87,2.3,2.4,3.61.8,1.97,1,4.14.6,6.21-.2,1.04-.55,2.04-1.05,2.99-.5.95-1.15,1.84-1.95,2.65l-10.14,10.14c-2.05,2.05-2.05,5.37,0,7.41s5.36,2.04,7.41,0l10.14-10.14c2.08-2.08,3.66-4.5,4.7-7.08,1.57-3.87,1.96-8.09,1.18-12.13Z"/>
    <path d="M90.62,105.83l-10.15,10.15c-1.08,1.07-2.3,1.87-3.61,2.4-1.97.8-4.14,1-6.21.6-1.04-.2-2.04-.55-2.99-1.05-.95-.5-1.84-1.15-2.65-1.95-1.08-1.08-1.87-2.3-2.4-3.61-.8-1.96-1-4.14-.6-6.21.2-1.03.55-2.04,1.05-2.99.5-.95,1.15-1.84,1.95-2.65l10.15-10.14c2.04-2.04,2.04-5.36,0-7.4-2.05-2.05-5.36-2.05-7.41,0l-10.14,10.14c-2.08,2.08-3.66,4.5-4.7,7.09-1.57,3.87-1.96,8.09-1.17,12.13.39,2.02,1.08,4,2.06,5.87.98,1.87,2.26,3.62,3.82,5.18,2.08,2.08,4.5,3.66,7.08,4.7,3.87,1.57,8.09,1.96,12.13,1.18,2.03-.39,4-1.08,5.87-2.06,1.87-.98,3.62-2.26,5.18-3.82l10.14-10.15c2.04-2.04,2.04-5.36,0-7.4-2.05-2.05-5.36-2.05-7.41,0Z"/>
    <path d="M103.77,77.23c-2.04-2.04-5.36-2.04-7.41,0l-19.06,19.06c-2.04,2.05-2.04,5.36,0,7.4,2.05,2.05,5.37,2.05,7.41,0l19.06-19.06c2.05-2.05,2.05-5.36,0-7.4Z"/>
  </g>
</svg>