<?xml version="1.0" encoding="UTF-8"?>
<svg id="_レイヤー_1" data-name="レイヤー 1" xmlns="http://www.w3.org/2000/svg" xmlns:xlink="http://www.w3.org/1999/xlink" viewBox="0 0 157.92 157.92">
  <defs>
    <style>
      .cls-1 {
        fill: url(#_名称未設定グラデーション_5);
      }

      .cls-2 {
        fill: url(#_名称未設定グラデーション_6);
      }

      .cls-3 {
        fill: #fff;
      }

      .cls-4 {
        fill: url(#_名称未設定グラデーション_4);
      }

      .cls-5 {
        fill: url(#_名称未設定グラデーション_3);
      }

      .cls-6 {
        fill: url(#_名称未設定グラデーション_7);
      }
    </style>
    <linearGradient id="_名称未設定グラデーション_7" data-name="名称未設定グラデーション 7" x1="-101.67" y1="-529.37" x2="-101.67" y2="-466.23" gradientTransform="translate(158.5 577.1)" gradientUnits="userSpaceOnUse">
      <stop offset="0" stop-color="#0f9ad6"/>
      <stop offset="1" stop-color="#d60fd6"/>
    </linearGradient>
    <linearGradient id="_名称未設定グラデーション_6" data-name="名称未設定グラデーション 6" x1="-108.14" y1="-532.26" x2="-108.14" y2="-462.83" gradientTransform="translate(158.5 577.1)" gradientUnits="userSpaceOnUse">
      <stop offset="0" stop-color="#0b729e"/>
      <stop offset="1" stop-color="#9e0b8f"/>
    </linearGradient>
    <linearGradient id="_名称未設定グラデーション_3" data-name="名称未設定グラデーション 3" x1="-114.95" y1="-519.32" x2="-114.95" y2="-475.6" gradientTransform="translate(158.5 577.1)" gradientUnits="userSpaceOnUse">
      <stop offset="0" stop-color="#074b69"/>
      <stop offset="1" stop-color="#690764"/>
    </linearGradient>
    <linearGradient id="_名称未設定グラデーション_4" data-name="名称未設定グラデーション 4" x1="-69.5" y1="-504.25" x2="-69.5" y2="-459.49" gradientTransform="translate(158.5 577.1)" gradientUnits="userSpaceOnUse">
      <stop offset="0" stop-color="#23bdeb"/>
      <stop offset="1" stop-color="#ff2eec"/>
    </linearGradient>
    <linearGradient id="_名称未設定グラデーション_5" data-name="名称未設定グラデーション 5" x1="-71.96" y1="-536.79" x2="-71.96" y2="-507.78" gradientTransform="translate(158.5 577.1)" gradientUnits="userSpaceOnUse">
      <stop offset="0" stop-color="#1fbfff"/>
      <stop offset="1" stop-color="#22bdec"/>
    </linearGradient>
  </defs>
  <circle class="cls-3" cx="78.96" cy="78.96" r="78.96"/>
  <g>
    <path class="cls-6" d="M55.05,106.07l.26-54.04,3.22-4.29.08,63.14-3.56-4.8h0Z"/>
    <path class="cls-2" d="M48.58,109.48l.26-60.35,3.22-4.29.08,69.44-3.56-4.8h0Z"/>
    <path class="cls-5" d="M41.77,96.7l.26-34.63,3.22-4.29.08,43.72-3.56-4.8h0Z"/>
    <path class="cls-4" d="M64.23,92.41c1.7,1.74,3.7,3.13,5.98,4.19s4.72,1.58,7.31,1.58,5.14-.48,7.67-1.43,4.53-2.52,6.03-4.7c.34-.55.37-1.04.1-1.48-.26-.42-.7-.64-1.33-.66h-11.86c-.64.01-1.26-.24-1.71-.69l-.02-.02c-.46-.45-.72-1.07-.71-1.71v-12.19c-.01-.64.24-1.26.69-1.71l.02-.02c.45-.46,1.06-.72,1.71-.71h35.19c.68,0,1.28.22,1.79.66.43.37.72.89.82,1.45.02.11.04.23.05.34.1.8.15,1.71.18,2.75.01.5.02.99.02,1.49,0,1.5-.08,3.01-.23,4.5-.02.22-.05.44-.07.66-.48,4.7-1.8,9.06-3.99,13.08-2.18,4.02-4.99,7.49-8.43,10.43-3.44,2.93-7.38,5.23-11.81,6.9-4.43,1.67-9.13,2.5-14.1,2.5-5.45,0-10.56-1.02-15.33-3.07-.67-10.45-.15-27.41-.15-27.41,0,0,.01,2.36,2.2,5.29h0Z"/>
    <path class="cls-1" d="M109.81,61.06l-12.26,7.87c-.41.26-.89.4-1.38.39-.14,0-.29-.01-.43-.03-.01,0-.02,0-.03,0-.67-.1-1.28-.44-1.73-.96h-.01c-1.39-1.73-2.97-3.28-4.72-4.63-.76-.59-1.56-1.12-2.38-1.62-2.62-1.57-5.74-2.35-9.35-2.35-2.59,0-5.03.53-7.31,1.58-2.12.98-8.03,6.35-8.03,6.35,0,0-.13-11.54-.02-23.76,0-.17.02-.35.04-.53,4.77-2.04,9.88-3.07,15.33-3.07,3.33-.02,6.64.32,9.9,1.01,3.38.72,6.64,1.93,9.67,3.59,5.55,3.07,10.07,7.29,13.54,12.67.3.49.41,1.05.3,1.67-.01.07-.03.15-.04.22-.06.27-.16.53-.3.77-.19.33-.45.61-.78.81h0Z"/>
  </g>
</svg>