<?xml version="1.0" encoding="UTF-8"?>
<svg id="Layer_1" data-name="Layer 1" xmlns="http://www.w3.org/2000/svg" viewBox="0 0 181.5 181.5">
  <defs>
    <style>
      .cls-1 {
        fill: #fff;
      }

      .cls-2 {
        fill: red;
      }
    </style>
  </defs>
  <circle class="cls-1" cx="90.75" cy="90.75" r="90.75"/>
  <g>
    <path class="cls-2" d="M144.86,63.56c-1.3-4.86-5.13-8.69-9.99-9.99-8.81-2.36-44.13-2.36-44.13-2.36,0,0-35.32,0-44.13,2.36-4.86,1.3-8.69,5.13-9.99,9.99-2.36,8.81-2.36,27.19-2.36,27.19,0,0,0,18.38,2.36,27.19,1.3,4.86,5.13,8.69,9.99,9.99,8.81,2.36,44.13,2.36,44.13,2.36,0,0,35.32,0,44.13-2.36,4.86-1.3,8.69-5.13,9.99-9.99,2.36-8.81,2.36-27.19,2.36-27.19,0,0,0-18.38-2.36-27.19Z"/>
    <polygon class="cls-1" points="79.46 107.69 108.8 90.75 79.46 73.81 79.46 107.69"/>
  </g>
</svg>